<svg viewBox="0 0 64 64" xmlns="http://www.w3.org/2000/svg" id="Peach--Streamline-Emoji" height="64" width="64">
  <desc>
    Peach Streamline Emoji: https://streamlinehq.com
  </desc>
  <path d="M26.106666666666662 10.48a9.946666666666665 9.946666666666665 0 0 0 6.533333333333333 6.666666666666666A9.986666666666666 9.986666666666666 0 0 0 28.93333333333333 1.7466666666666666a1.3333333333333333 1.3333333333333333 0 0 0 -1.7466666666666666 0.5333333333333333 9.973333333333333 9.973333333333333 0 0 0 -1.08 8.2Z" fill="#9ceb60" stroke-width="1"></path>
  <path d="M27.186666666666667 5.613333333333333a1.3333333333333333 1.3333333333333333 0 0 1 1.7466666666666666 -0.5333333333333333 10.013333333333332 10.013333333333332 0 0 1 5.466666666666666 6.213333333333333 9.76 9.76 0 0 1 0.27999999999999997 1.2 9.933333333333334 9.933333333333334 0 0 0 -5.746666666666666 -10.746666666666666 1.3333333333333333 1.3333333333333333 0 0 0 -1.7466666666666666 0.5333333333333333 10.026666666666666 10.026666666666666 0 0 0 -1.3333333333333333 6.973333333333334 10.386666666666667 10.386666666666667 0 0 1 1.3333333333333333 -3.6399999999999997Z" fill="#c8ffa1" stroke-width="1"></path>
  <path d="M26.106666666666662 10.48a9.946666666666665 9.946666666666665 0 0 0 6.533333333333333 6.666666666666666A9.986666666666666 9.986666666666666 0 0 0 28.93333333333333 1.7466666666666666a1.3333333333333333 1.3333333333333333 0 0 0 -1.7466666666666666 0.5333333333333333 9.973333333333333 9.973333333333333 0 0 0 -1.08 8.2Z" fill="none" stroke="#45413c" stroke-linecap="round" stroke-linejoin="round" stroke-width="1"></path>
  <path d="M41.81333333333333 15.546666666666667a9.959999999999999 9.959999999999999 0 0 1 -9.173333333333332 1.5466666666666664 9.986666666666666 9.986666666666666 0 0 1 12 -10.28 1.3333333333333333 1.3333333333333333 0 0 1 1.0933333333333333 1.4533333333333334 9.973333333333333 9.973333333333333 0 0 1 -3.92 7.279999999999999Z" fill="#9ceb60" stroke-width="1"></path>
  <path d="M36.56 12a10.04 10.04 0 0 1 8 -1.8399999999999999 1.3333333333333333 1.3333333333333333 0 0 1 0.7733333333333332 0.37333333333333335 10.293333333333333 10.293333333333333 0 0 0 0.42666666666666664 -2.2666666666666666 1.3333333333333333 1.3333333333333333 0 0 0 -1.1066666666666665 -1.4533333333333334 9.986666666666666 9.986666666666666 0 0 0 -12 10.28c0.13333333333333333 0 0.2533333333333333 0 0.3866666666666666 0.10666666666666666A9.946666666666665 9.946666666666665 0 0 1 36.56 12Z" fill="#c8ffa1" stroke-width="1"></path>
  <path d="M41.81333333333333 15.546666666666667a9.959999999999999 9.959999999999999 0 0 1 -9.173333333333332 1.5466666666666664 9.986666666666666 9.986666666666666 0 0 1 12 -10.28 1.3333333333333333 1.3333333333333333 0 0 1 1.0933333333333333 1.4533333333333334 9.973333333333333 9.973333333333333 0 0 1 -3.92 7.279999999999999Z" fill="none" stroke="#45413c" stroke-linecap="round" stroke-linejoin="round" stroke-width="1"></path>
  <path d="M16.666666666666664 60.666666666666664a15.333333333333332 2 0 1 0 30.666666666666664 0 15.333333333333332 2 0 1 0 -30.666666666666664 0Z" fill="#45413c" opacity=".15" stroke-width="1"></path>
  <path d="M44.693333333333335 15.186666666666667a18.05333333333333 18.05333333333333 0 0 0 -12 1.9066666666666665 17.906666666666666 17.906666666666666 0 0 0 -10.093333333333334 -2.16c-10.666666666666666 0.8266666666666667 -18.119999999999997 11.133333333333333 -16.24 21.706666666666667 2.6666666666666665 14.933333333333332 20.506666666666668 22.346666666666668 24.759999999999998 23.92a2.6666666666666665 2.6666666666666665 0 0 0 1.8133333333333335 0c4.72 -1.72 26.21333333333333 -10.48 26.426666666666666 -27.439999999999998a17.799999999999997 17.799999999999997 0 0 0 -14.666666666666666 -17.93333333333333Z" fill="#ff866e" stroke-width="1"></path>
  <path d="m42.8 33.599999999999994 0 -0.013333333333333332 0 0.013333333333333332z" fill="#ffa694" stroke-width="1"></path>
  <path d="M44.693333333333335 15.186666666666667a18.05333333333333 18.05333333333333 0 0 0 -12 1.9066666666666665 17.906666666666666 17.906666666666666 0 0 0 -10.093333333333334 -2.16C12 15.746666666666666 4.693333333333333 25.706666666666667 6.213333333333333 36.06666666666666a17.973333333333333 17.973333333333333 0 0 1 26.426666666666666 -12.973333333333333C35.50666666666666 24.733333333333334 38.666666666666664 26.666666666666664 42.8 33.586666666666666c0 -0.6666666666666666 -0.07999999999999999 -1.3333333333333333 -0.15999999999999998 -2.04a18.666666666666664 18.666666666666664 0 0 0 -4.586666666666666 -10.373333333333333 17.479999999999997 17.479999999999997 0 0 1 3.28 -0.30666666666666664A18 18 0 0 1 59.05333333333333 36a18.826666666666664 18.826666666666664 0 0 0 0.2533333333333333 -2.893333333333333 17.799999999999997 17.799999999999997 0 0 0 -14.613333333333333 -17.919999999999998Z" fill="#ffa694" stroke-width="1"></path>
  <path d="M44.693333333333335 15.186666666666667a18.05333333333333 18.05333333333333 0 0 0 -12 1.9066666666666665 17.906666666666666 17.906666666666666 0 0 0 -10.093333333333334 -2.16c-10.666666666666666 0.8266666666666667 -18.119999999999997 11.133333333333333 -16.24 21.706666666666667 2.6666666666666665 14.933333333333332 20.506666666666668 22.346666666666668 24.759999999999998 23.92a2.6666666666666665 2.6666666666666665 0 0 0 1.8133333333333335 0c4.72 -1.72 26.21333333333333 -10.48 26.426666666666666 -27.439999999999998a17.799999999999997 17.799999999999997 0 0 0 -14.666666666666666 -17.93333333333333Z" fill="none" stroke="#45413c" stroke-linecap="round" stroke-linejoin="round" stroke-width="1"></path>
  <path d="M38.666666666666664 49.06666666666666a29.560000000000002 29.560000000000002 0 0 1 -2 3.1466666666666665" fill="none" stroke="#45413c" stroke-linecap="round" stroke-linejoin="round" stroke-width="1"></path>
  <path d="M32.64 17.093333333333334A18.146666666666665 18.146666666666665 0 0 1 42.666666666666664 31.546666666666667a28 28 0 0 1 -2.5733333333333333 14.666666666666666" fill="none" stroke="#45413c" stroke-linecap="round" stroke-linejoin="round" stroke-width="1"></path>
</svg>